DBRep_DrawableShape

CASCADE Topology V1, (c) Matra-Datavision
Locations 24
1
              1               0               0               0 
              0               1               0               0 
              0               0               1               0 
1
              1              -0               0              -0 
              0               1               0               0 
             -0               0               1              -0 
2  1 1 2 1 0
2  2 -1 1 -1 0
1
              1               0               0               0 
              0               1               0               0 
              0               0               1               0 
1
              0               1               0               0 
              1              -0               0              -0 
              0               0              -1              -0 
2  5 1 6 1 0
1
              1               0               0               0 
              0               1               0               0 
              0               0               1               0 
1
             -0               0               1              -0 
              1              -0               0              -0 
              0               1               0               0 
2  8 1 9 1 0
1
              1               0               0               0 
              0               1               0               0 
              0               0               1               0 
1
              1              -0               0              -0 
              0               1               0               0 
             -0               0               1              -0 
2  11 1 12 1 0
2  1 1 2 1 12 -1 11 -1 0
2  12 -1 11 -1 0
1
              1               0               0               0 
              0               1               0               0 
              0               0               1               0 
1
              1              -0               0              -0 
              0               1               0               0 
             -0               0               1              -0 
2  16 1 17 1 0
2  11 1 12 1 17 -1 16 -1 0
2  1 1 2 1 17 -1 16 -1 0
2  17 -1 16 -1 0
1
              1               0               0               0 
              0               1               0               0 
              0               0               1               0 
1
              1              -0               0              -0 
              0               1               0               0 
             -0               0               1              -0 
2  22 1 23 1 0
Curve2ds 67
1 0 0 1 0 
1 0 0 1 0 
1 0 0 0 1 
1 12 0 0 -1 
1 0 0 1 0 
1 0 -28 1 0 
8 7.25 35.25
1 6 7.25 0 -1 
8 7.25 35.25
1 7.25 14 1 0 
8 -21 -7
1 6 -7 0 -1 
8 -21 -7
1 14.5 7 0 -1 
8 -15 -3
1 -3 14 -1 0 
8 -15 -3
1 14.5 3 0 -1 
1 0 0 1 0 
1 12 0 0 1 
1 0 28 1 0 
1 12 0 0 1 
8 7.25 35.25
1 14 -7.25 0 1 
8 7.25 35.25
1 7.25 18 1 0 
1 0 12 1 0 
2 0 0 1 0 -0 1 8.5
2 14 13.5 1 0 -0 1 8.5
8 -21 -7
1 6 -7 0 -1 
8 -21 -7
1 42.5 7 0 -1 
8 -15 -3
1 -3 14 -1 0 
8 -15 -3
1 42.5 3 0 -1 
8 14.5 19.5
1 0 12 1 0 
8 14.5 19.5
1 0 28 1 0 
1 0 6 1 0 
2 28 28 0 1 1 -0 8.5
8 36.5 42.5
1 0 12 1 0 
8 36.5 42.5
1 0 28 1 0 
8 -5.999999999062311e-07 12.0000006
1 4.7123889803846897 0 0 1 
8 -5.999999999062311e-07 12.0000006
1 19.5 6 0 1 
8 -5.999999999062311e-07 12.0000006
1 1.5707963267948966 0 0 1 
8 -5.999999999062311e-07 12.0000006
1 36.5 6 0 1 
1 0 12 1 0 
2 0 0 1 0 -0 1 7.5
2 0 0 1 0 -0 1 7.5
2 14 13.5 1 0 -0 1 7.5
8 -5.999999999062311e-07 12.0000006
1 4.7123889803846897 0 0 1 
8 -5.999999999062311e-07 12.0000006
1 20.5 6 0 1 
1 0 6 1 0 
2 28 28 0 1 1 -0 7.5
8 -5.999999999062311e-07 12.0000006
1 1.5707963267948966 0 0 1 
8 -5.999999999062311e-07 12.0000006
1 35.5 6 0 1 
8 6.5 21.5
1 0 -14 0 1 
8 6.5 21.5
1 14 18 1 0 
2 0 0 1 0 -0 1 6
1 0 18 1 0 
2 0 0 1 0 -0 1 6
2 14 13.5 1 0 -0 1 6
8 5.9999994000000001 18.0000006
1 4.7123889803846897 0 0 1 
8 5.9999994000000001 18.0000006
1 22 0 0 1 
8 20.5 22
1 0 12 1 0 
8 20.5 22
1 0 28 1 0 
1 0 12 1 0 
2 28 28 0 1 1 -0 6
8 34 35.5
1 0 12 1 0 
8 34 35.5
1 0 28 1 0 
8 5.9999994000000001 18.0000006
1 1.5707963267948966 0 0 1 
8 5.9999994000000001 18.0000006
1 34 0 0 1 
8 5.5 22.5
1 0 -14 0 1 
8 5.5 22.5
1 14 18 1 0 
8 19.5 20.5
1 0 12 1 0 
8 19.5 20.5
1 0 28 1 0 
8 35.5 36.5
1 0 12 1 0 
8 35.5 36.5
1 0 28 1 0 
Curves 31
1 -14 -13.5 -6 0 0 1 
1 -14 -13.5 6 0 1 0 
1 -14 14.5 -6 0 0 1 
1 -14 -20.75 0 -0 1 0 
1 -21 -13.5 0 -1 0 0 
1 0 -13.5 -9 0 0 -1 
1 -14 -13.5 6 1 0 0 
1 -14 14.5 6 1 0 0 
1 0 -20.75 6 0 1 0 
2 0 0 6 0 0 1 1 0 -0 -0 1 0 8.5
1 -21 14.5 0 -1 0 0 
1 0 14.5 -9 0 0 -1 
1 0 -28 0 -0 1 0 
2 0 0 0 0 0 1 1 0 -0 -0 1 0 8.5
1 0 -28 0 -0 1 0 
1 0 -8.5 -6 0 0 1 
1 0 8.5 -6 0 0 1 
2 0 0 6 0 0 1 1 0 -0 -0 1 0 7.5
1 0 -7.5 -6 0 0 1 
2 0 0 0 0 0 1 1 0 -0 -0 1 0 7.5
1 0 7.5 -6 0 0 1 
1 0 -14 6 0 1 0 
2 0 0 6 0 0 1 1 0 -0 -0 1 0 6
1 0 -6 -12 0 0 1 
1 0 -28 0 -0 1 0 
2 0 0 0 0 0 1 1 0 -0 -0 1 0 6
1 0 -28 0 -0 1 0 
1 0 6 -12 0 0 1 
1 0 -14 6 0 1 0 
1 0 -28 0 -0 1 0 
1 0 -28 0 -0 1 0 
Polygon3D 0
PolygonOnTriangulations 28
2 1 2 
p 1.20000004 1 6 12 
2 2 3 
p 1.20000004 1 6 12 
2 2 4 
p 1.400000015 1 0 28 
2 3 1 
p 1.400000015 1 0 28 
2 3 4 
p 1.20000004 1 6 12 
2 2 3 
p 1.20000004 1 6 12 
2 1 3 
p 1.400000015 1 7.25 35.25 
2 2 3 
p 1.400000015 1 7.25 35.25 
2 1 2 
p 1.400000015 1 -21 -7 
2 1 2 
p 1.400000015 1 -21 -7 
2 4 1 
p 1.20000006 1 -15 -9 
2 1 3 
p 1.20000006 1 -15 -9 
2 3 4 
p 1.400000015 1 0 14 
2 3 4 
p 1.400000015 1 0 14 
2 1 2 
p 1.400000015 1 0 14 
2 3 4 
p 1.400000015 1 0 14 
2 1 2 
p 1.400000015 1 -21 -7 
2 4 3 
p 1.400000015 1 -21 -7 
2 4 1 
p 1.20000006 1 -15 -9 
2 2 4 
p 1.20000006 1 -15 -9 
64 1 2 3 4 5 6 7 8 9 10 11 12 13 14 15 16 17 18 19 20 21 22 23 24 25 26 27 28 29 30 31 32 33 34 35 36 37 38 39 40 41 42 43 44 45 46 47 48 49 50 51 52 53 54 55 56 57 58 59 60 61 62 63 64 
p 0.750000015 1 1.5707963267949 1.62066287685188 1.67052942690886 1.72039597696584 1.77026252702282 1.8201290770798 1.86999562713678 1.91986217719376 1.96972872725074 2.01959527730772 2.06946182736471 2.11932837742169 2.16919492747867 2.21906147753565 2.26892802759263 2.31879457764961 2.36866112770659 2.41852767776357 2.46839422782055 2.51826077787753 2.56812732793452 2.6179938779915 2.66786042804848 2.71772697810546 2.76759352816244 2.81746007821942 2.8673266282764 2.91719317833338 2.96705972839036 3.01692627844734 3.06679282850433 3.11665937856131 3.16652592861829 3.21639247867527 3.26625902873225 3.31612557878923 3.36599212884621 3.41585867890319 3.46572522896017 3.51559177901716 3.56545832907414 3.61532487913112 3.6651914291881 3.71505797924508 3.76492452930206 3.81479107935904 3.86465762941602 3.914524179473 3.96439072952998 4.01425727958697 4.06412382964395 4.11399037970093 4.16385692975791 4.21372347981489 4.26359002987187 4.31345657992885 4.36332312998583 4.41318968004281 4.4630562300998 4.51292278015678 4.56278933021376 4.61265588027074 4.66252243032772 4.71238898038469 
64 1 67 68 69 70 71 72 73 74 75 76 77 78 79 80 81 82 83 84 85 86 87 88 89 90 91 92 93 94 95 96 97 98 99 100 101 102 103 104 105 106 107 108 109 110 111 112 113 114 115 116 117 118 119 120 121 122 123 124 125 126 127 128 66 
p 0.750000015 1 1.5707963267949 1.62066287685188 1.67052942690886 1.72039597696584 1.77026252702282 1.8201290770798 1.86999562713678 1.91986217719376 1.96972872725074 2.01959527730772 2.06946182736471 2.11932837742169 2.16919492747867 2.21906147753565 2.26892802759263 2.31879457764961 2.36866112770659 2.41852767776357 2.46839422782055 2.51826077787753 2.56812732793452 2.6179938779915 2.66786042804848 2.71772697810546 2.76759352816244 2.81746007821942 2.8673266282764 2.91719317833338 2.96705972839036 3.01692627844734 3.06679282850433 3.11665937856131 3.16652592861829 3.21639247867527 3.26625902873225 3.31612557878923 3.36599212884621 3.41585867890319 3.46572522896017 3.51559177901716 3.56545832907414 3.61532487913112 3.6651914291881 3.71505797924508 3.76492452930206 3.81479107935904 3.86465762941602 3.914524179473 3.96439072952998 4.01425727958697 4.06412382964395 4.11399037970093 4.16385692975791 4.21372347981489 4.26359002987187 4.31345657992885 4.36332312998583 4.41318968004281 4.4630562300998 4.51292278015678 4.56278933021376 4.61265588027074 4.66252243032772 4.71238898038469 
2 128 64 
p 0.750000015 1 12 18 
2 3 4 
p 0.750000015 1 12 18 
64 65 66 67 68 69 70 71 72 73 74 75 76 77 78 79 80 81 82 83 84 85 86 87 88 89 90 91 92 93 94 95 96 97 98 99 100 101 102 103 104 105 106 107 108 109 110 111 112 113 114 115 116 117 118 119 120 121 122 123 124 125 126 127 128 
p 0.750000015 1 1.5707963267949 1.62066287685188 1.67052942690886 1.72039597696584 1.77026252702282 1.8201290770798 1.86999562713678 1.91986217719376 1.96972872725074 2.01959527730772 2.06946182736471 2.11932837742169 2.16919492747867 2.21906147753565 2.26892802759263 2.31879457764961 2.36866112770659 2.41852767776357 2.46839422782055 2.51826077787753 2.56812732793452 2.6179938779915 2.66786042804848 2.71772697810546 2.76759352816244 2.81746007821942 2.8673266282764 2.91719317833338 2.96705972839036 3.01692627844734 3.06679282850433 3.11665937856131 3.16652592861829 3.21639247867527 3.26625902873225 3.31612557878923 3.36599212884621 3.41585867890319 3.46572522896017 3.51559177901716 3.56545832907414 3.61532487913112 3.6651914291881 3.71505797924508 3.76492452930206 3.81479107935904 3.86465762941602 3.914524179473 3.96439072952998 4.01425727958697 4.06412382964395 4.11399037970093 4.16385692975791 4.21372347981489 4.26359002987187 4.31345657992885 4.36332312998583 4.41318968004281 4.4630562300998 4.51292278015678 4.56278933021376 4.61265588027074 4.66252243032772 4.71238898038469 
64 65 66 67 68 69 70 71 72 73 74 75 76 77 78 79 80 81 82 83 84 85 86 87 88 89 90 91 92 93 94 95 96 97 98 99 100 101 102 103 104 105 106 107 108 109 110 111 112 113 114 115 116 117 118 119 120 121 122 123 124 125 126 127 128 
p 0.750000015 1 1.5707963267949 1.62066287685188 1.67052942690886 1.72039597696584 1.77026252702282 1.8201290770798 1.86999562713678 1.91986217719376 1.96972872725074 2.01959527730772 2.06946182736471 2.11932837742169 2.16919492747867 2.21906147753565 2.26892802759263 2.31879457764961 2.36866112770659 2.41852767776357 2.46839422782055 2.51826077787753 2.56812732793452 2.6179938779915 2.66786042804848 2.71772697810546 2.76759352816244 2.81746007821942 2.8673266282764 2.91719317833338 2.96705972839036 3.01692627844734 3.06679282850433 3.11665937856131 3.16652592861829 3.21639247867527 3.26625902873225 3.31612557878923 3.36599212884621 3.41585867890319 3.46572522896017 3.51559177901716 3.56545832907414 3.61532487913112 3.6651914291881 3.71505797924508 3.76492452930206 3.81479107935904 3.86465762941602 3.914524179473 3.96439072952998 4.01425727958697 4.06412382964395 4.11399037970093 4.16385692975791 4.21372347981489 4.26359002987187 4.31345657992885 4.36332312998583 4.41318968004281 4.4630562300998 4.51292278015678 4.56278933021376 4.61265588027074 4.66252243032772 4.71238898038469 
2 65 1 
p 0.750000015 1 12 18 
2 1 2 
p 0.750000015 1 12 18 
Surfaces 11
1 -14 -13.5 -6 1 0 0 0 0 1 0 -1 0 
1 -14 -13.5 -6 0 1 0 0 0 1 1 0 0 
1 -14 -13.5 6 0 0 1 1 0 0 0 1 0 
1 -14 14.5 -6 0 1 0 0 0 1 1 0 0 
1 -28 -28 0 0 0 1 1 0 -0 -0 1 0 
1 -28 -12 0 0 0 1 1 0 -0 -0 1 0 
2 0 0 -6 0 0 1 1 0 -0 -0 1 0 8.5
1 0 0 6 0 0 1 1 0 -0 -0 1 0 
2 0 0 -6 0 0 1 1 0 -0 -0 1 0 7.5
1 0 0 6 0 0 1 1 0 -0 -0 1 0 
2 0 0 -12 0 0 1 1 0 -0 -0 1 0 6
Triangulations 12
4 2 1 1.400000015
-14 -13.5 0 -14 -13.5 6 -14 14.5 0 -14 14.5 6 6 0 12 0 6 -28 12 -28 2 1 3 2 3 4 
4 2 1 1.3000000325
0 -13.5 0 -14 -13.5 0 -14 -13.5 6 0 -13.5 6 6 14 6 0 12 0 12 14 4 1 2 4 2 3 
68 66 1 1.400000015
-14 14.5 6 0 14.5 6 -14 -13.5 6 0 -13.5 6 -1.56142466891288e-15 -8.5 6 5.20474889637625e-16 8.5 6 -0.423690028115925 8.48943383036084 6 -0.846326696064441 8.45776159060591 6 -1.26685926249748 8.40506202291359 6 -1.68424221719488 8.33146614671262 6 -2.09743788036749 8.23715693294716 6 -2.50541898249268 8.1223688491822 6 -2.90717121826818 7.98738727668022 6 -3.3016957683349 7.83254780089847 6 -3.68801178249924 7.65823537717056 6 -4.06515881828121 7.46488337364694 6 -4.43219922872574 7.25297249387332 6 -4.78822049354079 7.02302958168595 6 -5.13233748776656 6.77562631139484 6 -5.46369468233559 6.51137776651131 6 -5.78146827105282 6.23094091055352 6 -6.08486821870761 5.93501295373161 6 -6.37314022522575 5.6243296195733 6 -6.64556760097826 5.29966331579922 6 -6.90147304858479 4.9618212139957 6 -7.14022034678157 4.61164324285894 6 -7.36121593216774 4.24999999999998 6 -7.56391037489749 3.87779058750187 6 -7.74779974464923 3.49594037661018 6 -7.91242686347575 3.10539870711434 6 -8.05738244242063 2.70713652713929 6 -8.18230609907511 2.30214397921552 6 -8.28688725354551 1.89142793862864 6 -8.37086590060377 1.47600951016888 6 -8.43403325610147 1.05692148950359 6 -8.47623227604003 0.635205795484572 6 -8.49735804700694 0.211910879773584 6 -8.49735804700694 -0.211910879773657 6 -8.47623227604003 -0.635205795484645 6 -8.43403325610146 -1.05692148950366 6 -8.37086590060376 -1.47600951016895 6 -8.28688725354549 -1.89142793862872 6 -8.18230609907509 -2.30214397921559 6 -8.0573824424206 -2.70713652713936 6 -7.91242686347572 -3.1053987071144 6 -7.7477997446492 -3.49594037661024 6 -7.56391037489746 -3.87779058750193 6 -7.3612159321677 -4.25000000000005 6 -7.14022034678153 -4.611643242859 6 -6.90147304858475 -4.96182121399576 6 -6.64556760097822 -5.29966331579928 6 -6.3731402252257 -5.62432961957335 6 -6.08486821870756 -5.93501295373166 6 -5.78146827105277 -6.23094091055357 6 -5.46369468233553 -6.51137776651136 6 -5.1323374877665 -6.77562631139488 6 -4.78822049354073 -7.023029581686 6 -4.43219922872567 -7.25297249387336 6 -4.06515881828114 -7.46488337364698 6 -3.68801178249918 -7.65823537717059 6 -3.30169576833484 -7.83254780089849 6 -2.90717121826811 -7.98738727668025 6 -2.50541898249261 -8.12236884918222 6 -2.09743788036742 -8.23715693294718 6 -1.6842422171948 -8.33146614671264 6 -1.2668592624974 -8.4050620229136 6 -0.846326696064356 -8.45776159060592 6 -0.423690028115839 -8.48943383036084 6 0 28 14 28 0 0 14 0 14 5 14 22 13.5763099718841 21.9894338303608 13.1536733039356 21.9577615906059 12.7331407375025 21.9050620229136 12.3157577828051 21.8314661467126 11.9025621196325 21.7371569329472 11.4945810175073 21.6223688491822 11.0928287817318 21.4873872766802 10.6983042316651 21.3325478008985 10.3119882175008 21.1582353771706 9.9348411817188 20.9648833736469 9.56780077127426 20.7529724938733 9.21177950645921 20.523029581686 8.86766251223344 20.2756263113948 8.53630531766441 20.0113777665113 8.21853172894718 19.7309409105535 7.91513178129239 19.4350129537316 7.62685977477425 19.1243296195733 7.35443239902174 18.7996633157992 7.09852695141521 18.4618212139957 6.85977965321843 18.1116432428589 6.63878406783226 17.75 6.43608962510251 17.3777905875019 6.25220025535077 16.9959403766102 6.08757313652425 16.6053987071143 5.94261755757937 16.2071365271393 5.81769390092489 15.8021439792155 5.71311274645449 15.3914279386286 5.62913409939623 14.9760095101689 5.56596674389853 14.5569214895036 5.52376772395997 14.1352057954846 5.50264195299306 13.7119108797736 5.50264195299306 13.2880891202263 5.52376772395997 12.8647942045154 5.56596674389854 12.4430785104963 5.62913409939624 12.023990489831 5.71311274645451 11.6085720613713 5.81769390092491 11.1978560207844 5.9426175575794 10.7928634728606 6.08757313652428 10.3946012928856 6.2522002553508 10.0040596233898 6.43608962510254 9.62220941249807 6.6387840678323 9.24999999999995 6.85977965321847 8.888356757141 7.09852695141525 8.53817878600424 7.35443239902178 8.20033668420072 7.6268597747743 7.87567038042665 7.91513178129244 7.56498704626834 8.21853172894723 7.26905908944643 8.53630531766447 6.98862223348864 8.8676625122335 6.72437368860512 9.21177950645927 6.476970418314 9.56780077127433 6.24702750612664 9.93484118171886 6.03511662635302 10.3119882175008 5.84176462282941 10.6983042316652 5.66745219910151 11.0928287817319 5.51261272331975 11.4945810175074 5.37763115081778 11.9025621196326 5.26284306705282 12.3157577828052 5.16853385328736 12.7331407375026 5.0949379770864 13.1536733039356 5.04223840939408 13.5763099718842 5.01056616963916 54 53 3 52 3 53 55 54 3 51 3 52 56 55 3 50 3 51 57 56 3 49 3 50 58 57 3 48 3 49 59 58 3 47 3 48 60 3 4 60 59 3 46 3 47 61 60 4 45 3 46 62 61 4 44 3 45 63 62 4 43 3 44 64 63 4 42 3 43 65 64 4 41 3 42 66 65 4 40 3 41 67 66 4 39 3 40 68 67 4 38 3 39 5 68 4 37 3 38 1 22 21 1 23 22 1 24 23 1 25 24 1 26 25 1 27 26 1 28 27 1 29 28 1 30 29 1 31 30 1 32 31 1 33 32 1 34 33 1 35 34 1 3 37 1 36 35 1 37 36 20 1 21 19 1 20 18 1 19 17 1 18 16 1 17 15 1 16 2 7 6 2 8 7 2 9 8 2 10 9 2 11 10 2 12 11 2 13 12 2 14 13 2 15 14 2 1 15 
4 2 1 1.3000000325
0 14.5 0 -14 14.5 0 -14 14.5 6 0 14.5 6 6 14 6 0 12 0 12 14 4 1 2 4 2 3 
68 66 1 1.400000015
0 -13.5 0 -14 -13.5 0 -14 14.5 0 0 14.5 0 0 8.5 0 -0.423690028115925 8.48943383036084 0 -0.846326696064441 8.45776159060591 0 -1.26685926249748 8.40506202291359 0 -1.68424221719488 8.33146614671262 0 -2.09743788036749 8.23715693294716 0 -2.50541898249268 8.1223688491822 0 -2.90717121826818 7.98738727668022 0 -3.3016957683349 7.83254780089847 0 -3.68801178249924 7.65823537717056 0 -4.06515881828121 7.46488337364694 0 -4.43219922872574 7.25297249387332 0 -4.78822049354079 7.02302958168595 0 -5.13233748776656 6.77562631139484 0 -5.46369468233559 6.51137776651131 0 -5.78146827105282 6.23094091055352 0 -6.08486821870761 5.93501295373161 0 -6.37314022522575 5.6243296195733 0 -6.64556760097826 5.29966331579922 0 -6.90147304858479 4.9618212139957 0 -7.14022034678157 4.61164324285894 0 -7.36121593216774 4.24999999999998 0 -7.56391037489749 3.87779058750187 0 -7.74779974464923 3.49594037661018 0 -7.91242686347575 3.10539870711434 0 -8.05738244242063 2.70713652713929 0 -8.18230609907511 2.30214397921552 0 -8.28688725354551 1.89142793862864 0 -8.37086590060377 1.47600951016888 0 -8.43403325610147 1.05692148950359 0 -8.47623227604003 0.635205795484572 0 -8.49735804700694 0.211910879773584 0 -8.49735804700694 -0.211910879773657 0 -8.47623227604003 -0.635205795484645 0 -8.43403325610146 -1.05692148950366 0 -8.37086590060376 -1.47600951016895 0 -8.28688725354549 -1.89142793862872 0 -8.18230609907509 -2.30214397921559 0 -8.0573824424206 -2.70713652713936 0 -7.91242686347572 -3.1053987071144 0 -7.7477997446492 -3.49594037661024 0 -7.56391037489746 -3.87779058750193 0 -7.3612159321677 -4.25000000000005 0 -7.14022034678153 -4.611643242859 0 -6.90147304858475 -4.96182121399576 0 -6.64556760097822 -5.29966331579928 0 -6.3731402252257 -5.62432961957335 0 -6.08486821870756 -5.93501295373166 0 -5.78146827105277 -6.23094091055357 0 -5.46369468233553 -6.51137776651136 0 -5.1323374877665 -6.77562631139488 0 -4.78822049354073 -7.023029581686 0 -4.43219922872567 -7.25297249387336 0 -4.06515881828114 -7.46488337364698 0 -3.68801178249918 -7.65823537717059 0 -3.30169576833484 -7.83254780089849 0 -2.90717121826811 -7.98738727668025 0 -2.50541898249261 -8.12236884918222 0 -2.09743788036742 -8.23715693294718 0 -1.6842422171948 -8.33146614671264 0 -1.2668592624974 -8.4050620229136 0 -0.846326696064356 -8.45776159060592 0 -0.423690028115839 -8.48943383036084 0 0 -8.5 0 14.5 28 14.5 14 42.5 14 42.5 28 36.5 28 36.4894338303608 27.5763099718841 36.4577615906059 27.1536733039356 36.4050620229136 26.7331407375025 36.3314661467126 26.3157577828051 36.2371569329472 25.9025621196325 36.1223688491822 25.4945810175073 35.9873872766802 25.0928287817318 35.8325478008985 24.6983042316651 35.6582353771706 24.3119882175008 35.4648833736469 23.9348411817188 35.2529724938733 23.5678007712743 35.023029581686 23.2117795064592 34.7756263113948 22.8676625122334 34.5113777665113 22.5363053176644 34.2309409105535 22.2185317289472 33.9350129537316 21.9151317812924 33.6243296195733 21.6268597747742 33.2996633157992 21.3544323990217 32.9618212139957 21.0985269514152 32.6116432428589 20.8597796532184 32.25 20.6387840678323 31.8777905875019 20.4360896251025 31.4959403766102 20.2522002553508 31.1053987071143 20.0875731365243 30.7071365271393 19.9426175575794 30.3021439792155 19.8176939009249 29.8914279386286 19.7131127464545 29.4760095101689 19.6291340993962 29.0569214895036 19.5659667438985 28.6352057954846 19.52376772396 28.2119108797736 19.5026419529931 27.7880891202263 19.5026419529931 27.3647942045154 19.52376772396 26.9430785104963 19.5659667438985 26.523990489831 19.6291340993962 26.1085720613713 19.7131127464545 25.6978560207844 19.8176939009249 25.2928634728606 19.9426175575794 24.8946012928856 20.0875731365243 24.5040596233898 20.2522002553508 24.1222094124981 20.4360896251025 23.75 20.6387840678323 23.388356757141 20.8597796532185 23.0381787860042 21.0985269514153 22.7003366842007 21.3544323990218 22.3756703804266 21.6268597747743 22.0649870462683 21.9151317812924 21.7690590894464 22.2185317289472 21.4886222334886 22.5363053176645 21.2243736886051 22.8676625122335 20.976970418314 23.2117795064593 20.7470275061266 23.5678007712743 20.535116626353 23.9348411817189 20.3417646228294 24.3119882175008 20.1674521991015 24.6983042316652 20.0126127233198 25.0928287817319 19.8776311508178 25.4945810175074 19.7628430670528 25.9025621196326 19.6685338532874 26.3157577828052 19.5949379770864 26.7331407375026 19.5422384093941 27.1536733039356 19.5105661696392 27.5763099718842 19.5 28 53 2 52 51 52 2 54 2 53 50 51 2 55 2 54 49 50 2 56 2 55 48 49 2 57 2 56 47 48 2 58 2 57 46 47 2 59 1 2 59 2 58 45 46 2 60 1 59 44 45 2 61 1 60 43 44 2 62 1 61 42 43 2 63 1 62 41 42 2 64 1 63 40 41 2 65 1 64 39 40 2 66 1 65 38 39 2 67 1 66 37 38 2 68 1 67 36 37 2 3 20 21 3 21 22 3 22 23 3 23 24 3 24 25 3 25 26 3 26 27 3 27 28 3 28 29 3 29 30 3 30 31 3 31 32 3 32 33 3 33 34 3 34 35 3 35 36 3 36 2 19 20 3 18 19 3 17 18 3 16 17 3 15 16 3 14 15 3 4 5 6 4 6 7 4 7 8 4 8 9 4 9 10 4 10 11 4 11 12 4 12 13 4 13 14 4 14 3 
4 2 1 1.100000055
0 -13.5 6 -1.56142466891288e-15 -8.5 6 0 -13.5 0 0 -8.5 0 14.5 18 19.5 18 14.5 12 19.5 12 2 1 3 2 3 4 
4 2 1 1.200000055
5.20474889637625e-16 8.5 6 0 14.5 6 0 8.5 0 0 14.5 0 36.5 18 42.5 18 36.5 12 42.5 12 1 3 4 2 1 4 
128 126 1 0.750000015
3.67394039744206e-16 6 6 -0.299075313964182 5.99254152731353 6 -0.597407079574899 5.97018465219241 6 -0.894253597057046 5.93298495735077 6 -1.18887685919638 5.88103492709126 6 -1.48054438614176 5.81446371737447 6 -1.76853104646542 5.73343683471684 6 -2.05212085995401 5.63815572471545 6 -2.33060877764817 5.52885727122245 6 -2.60330243470535 5.40581320741452 6 -2.86952387172791 5.26932944022137 6 -3.12861122027699 5.11974528979293 6 -3.37992034838173 4.95743264589597 6 -3.62282646195287 4.78279504333753 6 -3.85672565811924 4.59626665871386 6 -4.08103642662552 4.39831123097895 6 -4.29520109555832 4.18942090851643 6 -4.49868721780641 3.97011502558115 6 -4.69098889480818 3.74093881115239 6 -4.87162803429515 3.50246203340873 6 -5.04015553890464 3.25527758319455 6 -5.19615242270664 2.99999999999999 6 -5.33923085286882 2.73726394411896 6 -5.46903511387005 2.46772261878365 6 -5.58524249186523 2.19204614619835 6 -5.6875640770028 1.91091990151009 6 -5.77574548170008 1.62504280885801 6 -5.84956747309095 1.33512560373787 6 -5.90884651807325 1.04188906600156 6 -5.95343523960103 0.746062227884888 6 -5.98322278308708 0.448380561518521 6 -5.9981350920049 0.149584150428412 6 -5.9981350920049 -0.149584150428464 6 -5.98322278308708 -0.448380561518573 6 -5.95343523960103 -0.74606222788494 6 -5.90884651807324 -1.04188906600161 6 -5.84956747309093 -1.33512560373792 6 -5.77574548170006 -1.62504280885806 6 -5.68756407700278 -1.91091990151014 6 -5.58524249186521 -2.1920461461984 6 -5.46903511387002 -2.4677226187837 6 -5.33923085286879 -2.73726394411901 6 -5.19615242270661 -3.00000000000003 6 -5.04015553890461 -3.25527758319459 6 -4.87162803429512 -3.50246203340877 6 -4.69098889480815 -3.74093881115243 6 -4.49868721780638 -3.97011502558119 6 -4.29520109555828 -4.18942090851647 6 -4.08103642662548 -4.39831123097899 6 -3.8567256581192 -4.5962666587139 6 -3.62282646195283 -4.78279504333756 6 -3.37992034838169 -4.957432645896 6 -3.12861122027695 -5.11974528979296 6 -2.86952387172786 -5.2693294402214 6 -2.6033024347053 -5.40581320741454 6 -2.33060877764812 -5.52885727122247 6 -2.05212085995396 -5.63815572471547 6 -1.76853104646537 -5.73343683471686 6 -1.48054438614171 -5.81446371737448 6 -1.18887685919633 -5.88103492709127 6 -0.894253597056988 -5.93298495735078 6 -0.59740707957484 -5.97018465219241 6 -0.299075313964121 -5.99254152731354 6 -1.10218211923262e-15 -6 6 0 6 0 -0.299075313964182 5.99254152731353 0 -0.597407079574899 5.97018465219241 0 -0.894253597057046 5.93298495735077 0 -1.18887685919638 5.88103492709126 0 -1.48054438614176 5.81446371737447 0 -1.76853104646542 5.73343683471684 0 -2.05212085995401 5.63815572471545 0 -2.33060877764817 5.52885727122245 0 -2.60330243470535 5.40581320741452 0 -2.86952387172791 5.26932944022137 0 -3.12861122027699 5.11974528979293 0 -3.37992034838173 4.95743264589597 0 -3.62282646195287 4.78279504333753 0 -3.85672565811924 4.59626665871386 0 -4.08103642662552 4.39831123097895 0 -4.29520109555832 4.18942090851643 0 -4.49868721780641 3.97011502558115 0 -4.69098889480818 3.74093881115239 0 -4.87162803429515 3.50246203340873 0 -5.04015553890464 3.25527758319455 0 -5.19615242270664 2.99999999999999 0 -5.33923085286882 2.73726394411896 0 -5.46903511387005 2.46772261878365 0 -5.58524249186523 2.19204614619835 0 -5.6875640770028 1.91091990151009 0 -5.77574548170008 1.62504280885801 0 -5.84956747309095 1.33512560373787 0 -5.90884651807325 1.04188906600156 0 -5.95343523960103 0.746062227884888 0 -5.98322278308708 0.448380561518521 0 -5.9981350920049 0.149584150428412 0 -5.9981350920049 -0.149584150428464 0 -5.98322278308708 -0.448380561518573 0 -5.95343523960103 -0.74606222788494 0 -5.90884651807324 -1.04188906600161 0 -5.84956747309093 -1.33512560373792 0 -5.77574548170006 -1.62504280885806 0 -5.68756407700278 -1.91091990151014 0 -5.58524249186521 -2.1920461461984 0 -5.46903511387002 -2.4677226187837 0 -5.33923085286879 -2.73726394411901 0 -5.19615242270661 -3.00000000000003 0 -5.04015553890461 -3.25527758319459 0 -4.87162803429512 -3.50246203340877 0 -4.69098889480815 -3.74093881115243 0 -4.49868721780638 -3.97011502558119 0 -4.29520109555828 -4.18942090851647 0 -4.08103642662548 -4.39831123097899 0 -3.8567256581192 -4.5962666587139 0 -3.62282646195283 -4.78279504333756 0 -3.37992034838169 -4.957432645896 0 -3.12861122027695 -5.11974528979296 0 -2.86952387172786 -5.2693294402214 0 -2.6033024347053 -5.40581320741454 0 -2.33060877764812 -5.52885727122247 0 -2.05212085995396 -5.63815572471547 0 -1.76853104646537 -5.73343683471686 0 -1.48054438614171 -5.81446371737448 0 -1.18887685919633 -5.88103492709127 0 -0.894253597056988 -5.93298495735078 0 -0.59740707957484 -5.97018465219241 0 -0.299075313964121 -5.99254152731354 0 0 -6 0 1.5707963267949 18 1.62066287685188 18 1.67052942690886 18 1.72039597696584 18 1.77026252702282 18 1.8201290770798 18 1.86999562713678 18 1.91986217719376 18 1.96972872725074 18 2.01959527730772 18 2.06946182736471 18 2.11932837742169 18 2.16919492747867 18 2.21906147753565 18 2.26892802759263 18 2.31879457764961 18 2.36866112770659 18 2.41852767776357 18 2.46839422782055 18 2.51826077787753 18 2.56812732793452 18 2.6179938779915 18 2.66786042804848 18 2.71772697810546 18 2.76759352816244 18 2.81746007821942 18 2.8673266282764 18 2.91719317833338 18 2.96705972839036 18 3.01692627844734 18 3.06679282850433 18 3.11665937856131 18 3.16652592861829 18 3.21639247867527 18 3.26625902873225 18 3.31612557878923 18 3.36599212884621 18 3.41585867890319 18 3.46572522896017 18 3.51559177901716 18 3.56545832907414 18 3.61532487913112 18 3.6651914291881 18 3.71505797924508 18 3.76492452930206 18 3.81479107935904 18 3.86465762941602 18 3.914524179473 18 3.96439072952998 18 4.01425727958697 18 4.06412382964395 18 4.11399037970093 18 4.16385692975791 18 4.21372347981489 18 4.26359002987187 18 4.31345657992885 18 4.36332312998583 18 4.41318968004281 18 4.4630562300998 18 4.51292278015678 18 4.56278933021376 18 4.61265588027074 18 4.66252243032772 18 4.71238898038469 18 1.5707963267949 12 1.62066287685188 12 1.67052942690886 12 1.72039597696584 12 1.77026252702282 12 1.8201290770798 12 1.86999562713678 12 1.91986217719376 12 1.96972872725074 12 2.01959527730772 12 2.06946182736471 12 2.11932837742169 12 2.16919492747867 12 2.21906147753565 12 2.26892802759263 12 2.31879457764961 12 2.36866112770659 12 2.41852767776357 12 2.46839422782055 12 2.51826077787753 12 2.56812732793452 12 2.6179938779915 12 2.66786042804848 12 2.71772697810546 12 2.76759352816244 12 2.81746007821942 12 2.8673266282764 12 2.91719317833338 12 2.96705972839036 12 3.01692627844734 12 3.06679282850433 12 3.11665937856131 12 3.16652592861829 12 3.21639247867527 12 3.26625902873225 12 3.31612557878923 12 3.36599212884621 12 3.41585867890319 12 3.46572522896017 12 3.51559177901716 12 3.56545832907414 12 3.61532487913112 12 3.6651914291881 12 3.71505797924508 12 3.76492452930206 12 3.81479107935904 12 3.86465762941602 12 3.914524179473 12 3.96439072952998 12 4.01425727958697 12 4.06412382964395 12 4.11399037970093 12 4.16385692975791 12 4.21372347981489 12 4.26359002987187 12 4.31345657992885 12 4.36332312998583 12 4.41318968004281 12 4.4630562300998 12 4.51292278015678 12 4.56278933021376 12 4.61265588027074 12 4.66252243032772 12 4.71238898038469 12 2 1 65 2 65 66 3 2 66 3 66 67 4 3 67 4 67 68 4 68 69 5 4 69 5 69 70 6 5 70 7 6 70 7 70 71 8 7 71 8 71 72 9 8 72 9 72 73 10 9 73 10 73 74 11 74 75 11 10 74 12 75 76 12 11 75 12 76 77 13 12 77 14 77 78 14 13 77 15 78 79 15 14 78 16 79 80 16 15 79 17 80 81 17 16 80 18 81 82 18 82 83 18 17 81 19 18 83 20 19 83 20 83 84 21 20 84 21 84 85 22 21 85 22 85 86 22 86 87 23 22 87 24 23 87 24 87 88 25 24 88 25 88 89 26 25 89 26 89 90 26 90 91 27 26 91 27 91 92 28 27 92 29 28 92 29 92 93 30 29 93 30 93 94 30 94 95 31 30 95 32 31 95 32 95 96 33 32 96 33 96 97 34 33 97 34 97 98 35 34 98 35 98 99 35 99 100 36 35 100 37 101 102 37 36 100 37 100 101 38 37 102 39 102 103 39 38 102 40 103 104 40 39 103 41 104 105 41 40 104 42 105 106 42 41 105 43 106 107 43 107 108 43 42 106 44 43 108 45 44 108 45 108 109 46 109 110 46 45 109 47 110 111 47 46 110 48 111 112 48 112 113 48 47 111 49 48 113 50 113 114 50 49 113 51 114 115 51 50 114 52 115 116 52 51 115 53 116 117 53 117 118 53 52 116 54 53 118 55 118 119 55 54 118 56 119 120 56 55 119 57 120 121 57 56 120 58 121 122 58 57 121 59 122 123 59 58 122 60 123 124 60 59 123 61 124 125 61 60 124 62 125 126 62 61 125 63 126 127 63 62 126 64 63 127 64 127 128 
128 126 1 0.750000015
3.67394039744206e-16 6 6 4.59242549680257e-16 7.5 6 -0.373844142455228 7.49067690914192 6 -0.746758849468624 7.46273081524051 6 -1.11781699632131 7.41623119668846 6 -1.48609607399548 7.35129365886408 6 -1.8506804826772 7.26807964671808 6 -2.21066380808178 7.16679604339606 6 -2.56515107494251 7.04769465589431 6 -2.91326097206021 6.91107158902806 6 -3.25412804338169 6.75726650926814 6 -3.58690483965989 6.58666180027671 6 -3.91076402534624 6.39968161224117 6 -4.22490043547717 6.19679080736996 6 -4.52853307744108 5.97849380417192 6 -4.82090707264905 5.74533332339233 6 -5.1012955332819 5.49788903872369 6 -5.3690013694479 5.23677613564554 6 -5.62335902225801 4.96264378197644 6 -5.86373611851023 4.67617351394049 6 -6.08953504286893 4.37807754176091 6 -6.30019442363079 4.06909697899318 6 -6.4951905283833 3.74999999999999 6 -6.67403856608602 3.42157993014871 6 -6.83629389233756 3.08465327347957 6 -6.98155311483154 2.74005768274794 6 -7.1094550962535 2.38864987688761 6 -7.2196818521251 2.03130351107251 6 -7.31195934136368 1.66890700467233 6 -7.38605814759156 1.30236133250195 6 -7.44179404950129 0.93257778485611 6 -7.47902847885885 0.560475701898152 6 -7.49766886500612 0.186980188035515 6 -7.49766886500612 -0.18698018803558 6 -7.47902847885885 -0.560475701898216 6 -7.44179404950129 -0.932577784856175 6 -7.38605814759155 -1.30236133250201 6 -7.31195934136367 -1.6689070046724 6 -7.21968185212508 -2.03130351107258 6 -7.10945509625347 -2.38864987688767 6 -6.98155311483152 -2.740057682748 6 -6.83629389233753 -3.08465327347963 6 -6.67403856608599 -3.42157993014876 6 -6.49519052838327 -3.75000000000004 6 -6.30019442363076 -4.06909697899324 6 -6.08953504286889 -4.37807754176097 6 -5.86373611851019 -4.67617351394054 6 -5.62335902225797 -4.96264378197649 6 -5.36900136944785 -5.23677613564559 6 -5.10129553328185 -5.49788903872374 6 -4.820907072649 -5.74533332339237 6 -4.52853307744103 -5.97849380417195 6 -4.22490043547711 -6.19679080737 6 -3.91076402534618 -6.3996816122412 6 -3.58690483965983 -6.58666180027674 6 -3.25412804338163 -6.75726650926817 6 -2.91326097206015 -6.91107158902808 6 -2.56515107494245 -7.04769465589434 6 -2.21066380808172 -7.16679604339608 6 -1.85068048267713 -7.2680796467181 6 -1.48609607399541 -7.35129365886409 6 -1.11781699632123 -7.41623119668848 6 -0.74675884946855 -7.46273081524052 6 -0.373844142455152 -7.49067690914192 6 -1.37772764904077e-15 -7.5 6 -1.10218211923262e-15 -6 6 -0.299075313964182 5.99254152731353 6 -0.597407079574899 5.97018465219241 6 -0.894253597057046 5.93298495735077 6 -1.18887685919638 5.88103492709126 6 -1.48054438614176 5.81446371737447 6 -1.76853104646542 5.73343683471684 6 -2.05212085995401 5.63815572471545 6 -2.33060877764817 5.52885727122245 6 -2.60330243470535 5.40581320741452 6 -2.86952387172791 5.26932944022137 6 -3.12861122027699 5.11974528979293 6 -3.37992034838173 4.95743264589597 6 -3.62282646195287 4.78279504333753 6 -3.85672565811924 4.59626665871386 6 -4.08103642662552 4.39831123097895 6 -4.29520109555832 4.18942090851643 6 -4.49868721780641 3.97011502558115 6 -4.69098889480818 3.74093881115239 6 -4.87162803429515 3.50246203340873 6 -5.04015553890464 3.25527758319455 6 -5.19615242270664 2.99999999999999 6 -5.33923085286882 2.73726394411896 6 -5.46903511387005 2.46772261878365 6 -5.58524249186523 2.19204614619835 6 -5.6875640770028 1.91091990151009 6 -5.77574548170008 1.62504280885801 6 -5.84956747309095 1.33512560373787 6 -5.90884651807325 1.04188906600156 6 -5.95343523960103 0.746062227884888 6 -5.98322278308708 0.448380561518521 6 -5.9981350920049 0.149584150428412 6 -5.9981350920049 -0.149584150428464 6 -5.98322278308708 -0.448380561518573 6 -5.95343523960103 -0.74606222788494 6 -5.90884651807324 -1.04188906600161 6 -5.84956747309093 -1.33512560373792 6 -5.77574548170006 -1.62504280885806 6 -5.68756407700278 -1.91091990151014 6 -5.58524249186521 -2.1920461461984 6 -5.46903511387002 -2.4677226187837 6 -5.33923085286879 -2.73726394411901 6 -5.19615242270661 -3.00000000000003 6 -5.04015553890461 -3.25527758319459 6 -4.87162803429512 -3.50246203340877 6 -4.69098889480815 -3.74093881115243 6 -4.49868721780638 -3.97011502558119 6 -4.29520109555828 -4.18942090851647 6 -4.08103642662548 -4.39831123097899 6 -3.8567256581192 -4.5962666587139 6 -3.62282646195283 -4.78279504333756 6 -3.37992034838169 -4.957432645896 6 -3.12861122027695 -5.11974528979296 6 -2.86952387172786 -5.2693294402214 6 -2.6033024347053 -5.40581320741454 6 -2.33060877764812 -5.52885727122247 6 -2.05212085995396 -5.63815572471547 6 -1.76853104646537 -5.73343683471686 6 -1.48054438614171 -5.81446371737448 6 -1.18887685919633 -5.88103492709127 6 -0.894253597056988 -5.93298495735078 6 -0.59740707957484 -5.97018465219241 6 -0.299075313964121 -5.99254152731354 6 0 6 8.88178419700125e-16 7.5 -0.373844142455228 7.49067690914192 -0.746758849468624 7.46273081524051 -1.11781699632131 7.41623119668846 -1.48609607399548 7.35129365886408 -1.8506804826772 7.26807964671809 -2.21066380808178 7.16679604339606 -2.56515107494251 7.04769465589431 -2.91326097206021 6.91107158902806 -3.25412804338169 6.75726650926814 -3.58690483965989 6.58666180027671 -3.91076402534624 6.39968161224117 -4.22490043547717 6.19679080736996 -4.52853307744108 5.97849380417192 -4.82090707264905 5.74533332339233 -5.1012955332819 5.49788903872369 -5.3690013694479 5.23677613564554 -5.62335902225801 4.96264378197644 -5.86373611851023 4.67617351394049 -6.08953504286893 4.37807754176091 -6.30019442363079 4.06909697899318 -6.4951905283833 3.74999999999999 -6.67403856608602 3.42157993014871 -6.83629389233756 3.08465327347957 -6.98155311483154 2.74005768274794 -7.1094550962535 2.38864987688761 -7.2196818521251 2.03130351107252 -7.31195934136368 1.66890700467233 -7.38605814759156 1.30236133250195 -7.44179404950129 0.932577784856111 -7.47902847885885 0.560475701898152 -7.49766886500612 0.186980188035515 -7.49766886500612 -0.18698018803558 -7.47902847885885 -0.560475701898216 -7.44179404950129 -0.932577784856175 -7.38605814759155 -1.30236133250201 -7.31195934136367 -1.6689070046724 -7.21968185212508 -2.03130351107258 -7.10945509625347 -2.38864987688767 -6.98155311483152 -2.740057682748 -6.83629389233753 -3.08465327347963 -6.67403856608599 -3.42157993014876 -6.49519052838327 -3.75000000000004 -6.30019442363076 -4.06909697899324 -6.08953504286889 -4.37807754176097 -5.86373611851019 -4.67617351394054 -5.62335902225797 -4.96264378197649 -5.36900136944785 -5.23677613564559 -5.10129553328185 -5.49788903872374 -4.820907072649 -5.74533332339237 -4.52853307744103 -5.97849380417195 -4.22490043547711 -6.19679080737 -3.91076402534618 -6.3996816122412 -3.58690483965983 -6.58666180027674 -3.25412804338163 -6.75726650926817 -2.91326097206015 -6.91107158902808 -2.56515107494245 -7.04769465589434 -2.21066380808172 -7.16679604339608 -1.85068048267713 -7.2680796467181 -1.48609607399541 -7.35129365886409 -1.11781699632123 -7.41623119668848 -0.74675884946855 -7.46273081524052 -0.373844142455152 -7.49067690914192 0 -7.5 -8.88178419700125e-16 -6 -0.299075313964183 5.99254152731353 -0.597407079574899 5.97018465219241 -0.894253597057046 5.93298495735077 -1.18887685919638 5.88103492709126 -1.48054438614176 5.81446371737447 -1.76853104646542 5.73343683471684 -2.05212085995401 5.63815572471545 -2.33060877764817 5.52885727122245 -2.60330243470535 5.40581320741451 -2.86952387172791 5.26932944022137 -3.12861122027699 5.11974528979293 -3.37992034838173 4.95743264589597 -3.62282646195287 4.78279504333753 -3.85672565811924 4.59626665871387 -4.08103642662552 4.39831123097895 -4.29520109555832 4.18942090851643 -4.49868721780641 3.97011502558115 -4.69098889480818 3.74093881115239 -4.87162803429515 3.50246203340873 -5.04015553890464 3.25527758319455 -5.19615242270664 2.99999999999999 -5.33923085286882 2.73726394411896 -5.46903511387005 2.46772261878365 -5.58524249186523 2.19204614619835 -5.6875640770028 1.91091990151009 -5.77574548170008 1.62504280885801 -5.84956747309095 1.33512560373787 -5.90884651807325 1.04188906600156 -5.95343523960103 0.746062227884888 -5.98322278308708 0.448380561518522 -5.9981350920049 0.149584150428412 -5.9981350920049 -0.149584150428463 -5.98322278308708 -0.448380561518573 -5.95343523960103 -0.74606222788494 -5.90884651807324 -1.04188906600161 -5.84956747309093 -1.33512560373792 -5.77574548170006 -1.62504280885806 -5.68756407700278 -1.91091990151014 -5.58524249186521 -2.1920461461984 -5.46903511387002 -2.4677226187837 -5.33923085286879 -2.73726394411901 -5.19615242270661 -3.00000000000003 -5.04015553890461 -3.25527758319459 -4.87162803429512 -3.50246203340877 -4.69098889480815 -3.74093881115243 -4.49868721780638 -3.97011502558119 -4.29520109555828 -4.18942090851647 -4.08103642662548 -4.39831123097899 -3.8567256581192 -4.5962666587139 -3.62282646195283 -4.78279504333756 -3.37992034838169 -4.957432645896 -3.12861122027695 -5.11974528979296 -2.86952387172786 -5.2693294402214 -2.6033024347053 -5.40581320741454 -2.33060877764812 -5.52885727122247 -2.05212085995396 -5.63815572471547 -1.76853104646537 -5.73343683471686 -1.48054438614171 -5.81446371737448 -1.18887685919633 -5.88103492709127 -0.894253597056988 -5.93298495735078 -0.59740707957484 -5.97018465219241 -0.299075313964122 -5.99254152731354 114 49 50 114 113 49 112 48 49 112 49 113 115 50 51 115 114 50 111 46 47 111 47 48 111 48 112 116 51 52 116 115 51 110 46 111 117 52 53 117 116 52 109 45 46 109 46 110 118 53 54 118 117 53 108 45 109 108 44 45 119 118 54 119 54 55 107 44 108 107 43 44 120 119 55 120 55 56 120 56 57 106 43 107 106 41 42 106 42 43 121 120 57 121 57 58 105 41 106 122 121 58 104 40 41 104 41 105 123 122 58 123 58 59 123 59 60 103 40 104 103 39 40 124 123 60 102 39 103 102 38 39 125 124 60 125 60 61 101 37 38 101 38 102 126 61 62 126 62 63 126 125 61 100 37 101 100 36 37 127 126 63 99 36 100 99 35 36 128 127 63 128 63 64 98 35 99 98 33 34 98 34 35 66 128 64 66 64 65 97 33 98 96 31 32 96 32 33 96 33 97 95 31 96 94 30 31 94 31 95 93 29 30 93 30 94 92 28 29 92 29 93 91 27 28 91 28 92 90 26 27 90 27 91 89 25 26 89 26 90 88 24 25 88 25 89 87 23 24 87 24 88 86 22 23 86 23 87 85 22 86 85 21 22 84 21 85 84 20 21 83 20 84 83 19 20 82 19 83 82 18 19 81 18 82 17 18 81 16 17 81 16 81 80 15 16 80 15 80 79 14 15 79 14 79 78 13 14 78 13 77 76 13 78 77 12 13 76 11 12 76 11 75 74 11 76 75 10 11 74 9 10 74 9 74 73 8 9 73 8 73 72 7 8 72 7 71 70 7 72 71 6 7 70 5 70 69 5 6 70 4 69 68 4 5 69 3 68 67 3 4 68 2 67 1 2 3 67 
4 2 1 0.5250000375
0 -7.5 0 -1.37772764904077e-15 -7.5 6 0 -6 0 -1.10218211923262e-15 -6 6 20.5 12 20.5 18 22 12 22 18 4 2 1 4 1 3 
128 126 1 0.750000015
0 7.5 0 -0.373844142455228 7.49067690914192 0 -0.746758849468624 7.46273081524051 0 -1.11781699632131 7.41623119668846 0 -1.48609607399548 7.35129365886408 0 -1.8506804826772 7.26807964671808 0 -2.21066380808178 7.16679604339606 0 -2.56515107494251 7.04769465589431 0 -2.91326097206021 6.91107158902806 0 -3.25412804338169 6.75726650926814 0 -3.58690483965989 6.58666180027671 0 -3.91076402534624 6.39968161224117 0 -4.22490043547717 6.19679080736996 0 -4.52853307744108 5.97849380417192 0 -4.82090707264905 5.74533332339233 0 -5.1012955332819 5.49788903872369 0 -5.3690013694479 5.23677613564554 0 -5.62335902225801 4.96264378197644 0 -5.86373611851023 4.67617351394049 0 -6.08953504286893 4.37807754176091 0 -6.30019442363079 4.06909697899318 0 -6.4951905283833 3.74999999999999 0 -6.67403856608602 3.42157993014871 0 -6.83629389233756 3.08465327347957 0 -6.98155311483154 2.74005768274794 0 -7.1094550962535 2.38864987688761 0 -7.2196818521251 2.03130351107251 0 -7.31195934136368 1.66890700467233 0 -7.38605814759156 1.30236133250195 0 -7.44179404950129 0.93257778485611 0 -7.47902847885885 0.560475701898152 0 -7.49766886500612 0.186980188035515 0 -7.49766886500612 -0.18698018803558 0 -7.47902847885885 -0.560475701898216 0 -7.44179404950129 -0.932577784856175 0 -7.38605814759155 -1.30236133250201 0 -7.31195934136367 -1.6689070046724 0 -7.21968185212508 -2.03130351107258 0 -7.10945509625347 -2.38864987688767 0 -6.98155311483152 -2.740057682748 0 -6.83629389233753 -3.08465327347963 0 -6.67403856608599 -3.42157993014876 0 -6.49519052838327 -3.75000000000004 0 -6.30019442363076 -4.06909697899324 0 -6.08953504286889 -4.37807754176097 0 -5.86373611851019 -4.67617351394054 0 -5.62335902225797 -4.96264378197649 0 -5.36900136944785 -5.23677613564559 0 -5.10129553328185 -5.49788903872374 0 -4.820907072649 -5.74533332339237 0 -4.52853307744103 -5.97849380417195 0 -4.22490043547711 -6.19679080737 0 -3.91076402534618 -6.3996816122412 0 -3.58690483965983 -6.58666180027674 0 -3.25412804338163 -6.75726650926817 0 -2.91326097206015 -6.91107158902808 0 -2.56515107494245 -7.04769465589434 0 -2.21066380808172 -7.16679604339608 0 -1.85068048267713 -7.2680796467181 0 -1.48609607399541 -7.35129365886409 0 -1.11781699632123 -7.41623119668848 0 -0.74675884946855 -7.46273081524052 0 -0.373844142455152 -7.49067690914192 0 0 -7.5 0 0 6 0 -0.299075313964182 5.99254152731353 0 -0.597407079574899 5.97018465219241 0 -0.894253597057046 5.93298495735077 0 -1.18887685919638 5.88103492709126 0 -1.48054438614176 5.81446371737447 0 -1.76853104646542 5.73343683471684 0 -2.05212085995401 5.63815572471545 0 -2.33060877764817 5.52885727122245 0 -2.60330243470535 5.40581320741452 0 -2.86952387172791 5.26932944022137 0 -3.12861122027699 5.11974528979293 0 -3.37992034838173 4.95743264589597 0 -3.62282646195287 4.78279504333753 0 -3.85672565811924 4.59626665871386 0 -4.08103642662552 4.39831123097895 0 -4.29520109555832 4.18942090851643 0 -4.49868721780641 3.97011502558115 0 -4.69098889480818 3.74093881115239 0 -4.87162803429515 3.50246203340873 0 -5.04015553890464 3.25527758319455 0 -5.19615242270664 2.99999999999999 0 -5.33923085286882 2.73726394411896 0 -5.46903511387005 2.46772261878365 0 -5.58524249186523 2.19204614619835 0 -5.6875640770028 1.91091990151009 0 -5.77574548170008 1.62504280885801 0 -5.84956747309095 1.33512560373787 0 -5.90884651807325 1.04188906600156 0 -5.95343523960103 0.746062227884888 0 -5.98322278308708 0.448380561518521 0 -5.9981350920049 0.149584150428412 0 -5.9981350920049 -0.149584150428464 0 -5.98322278308708 -0.448380561518573 0 -5.95343523960103 -0.74606222788494 0 -5.90884651807324 -1.04188906600161 0 -5.84956747309093 -1.33512560373792 0 -5.77574548170006 -1.62504280885806 0 -5.68756407700278 -1.91091990151014 0 -5.58524249186521 -2.1920461461984 0 -5.46903511387002 -2.4677226187837 0 -5.33923085286879 -2.73726394411901 0 -5.19615242270661 -3.00000000000003 0 -5.04015553890461 -3.25527758319459 0 -4.87162803429512 -3.50246203340877 0 -4.69098889480815 -3.74093881115243 0 -4.49868721780638 -3.97011502558119 0 -4.29520109555828 -4.18942090851647 0 -4.08103642662548 -4.39831123097899 0 -3.8567256581192 -4.5962666587139 0 -3.62282646195283 -4.78279504333756 0 -3.37992034838169 -4.957432645896 0 -3.12861122027695 -5.11974528979296 0 -2.86952387172786 -5.2693294402214 0 -2.6033024347053 -5.40581320741454 0 -2.33060877764812 -5.52885727122247 0 -2.05212085995396 -5.63815572471547 0 -1.76853104646537 -5.73343683471686 0 -1.48054438614171 -5.81446371737448 0 -1.18887685919633 -5.88103492709127 0 -0.894253597056988 -5.93298495735078 0 -0.59740707957484 -5.97018465219241 0 -0.299075313964121 -5.99254152731354 0 0 -6 0 35.5 28 35.4906769091419 27.6261558575448 35.4627308152405 27.2532411505314 35.4162311966885 26.8821830036787 35.3512936588641 26.5139039260045 35.2680796467181 26.1493195173228 35.1667960433961 25.7893361919182 35.0476946558943 25.4348489250575 34.9110715890281 25.0867390279398 34.7572665092681 24.7458719566183 34.5866618002767 24.4130951603401 34.3996816122412 24.0892359746538 34.19679080737 23.7750995645228 33.9784938041719 23.4714669225589 33.7453333233923 23.179092927351 33.4978890387237 22.8987044667181 33.2367761356455 22.6309986305521 32.9626437819764 22.376640977742 32.6761735139405 22.1362638814898 32.3780775417609 21.9104649571311 32.0690969789932 21.6998055763692 31.75 21.5048094716167 31.4215799301487 21.325961433914 31.0846532734796 21.1637061076624 30.7400576827479 21.0184468851685 30.3886498768876 20.8905449037465 30.0313035110725 20.7803181478749 29.6689070046723 20.6880406586363 29.302361332502 20.6139418524084 28.9325777848561 20.5582059504987 28.5604757018982 20.5209715211411 28.1869801880355 20.5023311349939 27.8130198119644 20.5023311349939 27.4395242981018 20.5209715211412 27.0674222151438 20.5582059504987 26.697638667498 20.6139418524084 26.3310929953276 20.6880406586363 25.9686964889274 20.7803181478749 25.6113501231123 20.8905449037465 25.259942317252 21.0184468851685 24.9153467265204 21.1637061076625 24.5784200698512 21.325961433914 24.25 21.5048094716167 23.9309030210068 21.6998055763692 23.621922458239 21.9104649571311 23.3238264860595 22.1362638814898 23.0373562180235 22.376640977742 22.7632238643544 22.6309986305521 22.5021109612763 22.8987044667181 22.2546666766076 23.179092927351 22.021506195828 23.471466922559 21.80320919263 23.7750995645229 21.6003183877588 24.0892359746538 21.4133381997233 24.4130951603402 21.2427334907318 24.7458719566184 21.0889284109719 25.0867390279398 20.9523053441057 25.4348489250575 20.8332039566039 25.7893361919183 20.7319203532819 26.1493195173229 20.6487063411359 26.5139039260046 20.5837688033115 26.8821830036788 20.5372691847595 27.2532411505315 20.5093230908581 27.6261558575448 20.5 28 34 28 33.9925415273135 27.7009246860358 33.9701846521924 27.4025929204251 33.9329849573508 27.105746402943 33.8810349270913 26.8111231408036 33.8144637173745 26.5194556138582 33.7334368347168 26.2314689535346 33.6381557247155 25.947879140046 33.5288572712224 25.6693912223518 33.4058132074145 25.3966975652947 33.2693294402214 25.1304761282721 33.1197452897929 24.871388779723 32.957432645896 24.6200796516183 32.7827950433375 24.3771735380471 32.5962666587139 24.1432743418808 32.398311230979 23.9189635733745 32.1894209085164 23.7047989044417 31.9701150255812 23.5013127821936 31.7409388111524 23.3090111051918 31.5024620334087 23.1283719657049 31.2552775831945 22.9598444610954 31 22.8038475772934 30.737263944119 22.6607691471312 30.4677226187837 22.53096488613 30.1920461461984 22.4147575081348 29.9109199015101 22.3124359229972 29.625042808858 22.2242545182999 29.3351256037379 22.1504325269091 29.0418890660016 22.0911534819267 28.7460622278849 22.046564760399 28.4483805615185 22.0167772169129 28.1495841504284 22.0018649079951 27.8504158495715 22.0018649079951 27.5516194384814 22.0167772169129 27.2539377721151 22.046564760399 26.9581109339984 22.0911534819268 26.6648743962621 22.1504325269091 26.3749571911419 22.2242545182999 26.0890800984899 22.3124359229972 25.8079538538016 22.4147575081348 25.5322773812163 22.53096488613 25.262736055881 22.6607691471312 25 22.8038475772934 24.7447224168054 22.9598444610954 24.4975379665912 23.1283719657049 24.2590611888476 23.3090111051918 24.0298849744188 23.5013127821936 23.8105790914835 23.7047989044417 23.601688769021 23.9189635733745 23.4037333412861 24.1432743418808 23.2172049566624 24.3771735380472 23.042567354104 24.6200796516183 22.880254710207 24.8713887797231 22.7306705597786 25.1304761282721 22.5941867925855 25.3966975652947 22.4711427287775 25.6693912223519 22.3618442752845 25.947879140046 22.2665631652831 26.2314689535346 22.1855362826255 26.5194556138583 22.1189650729087 26.8111231408037 22.0670150426492 27.105746402943 22.0298153478076 27.4025929204252 22.0074584726865 27.7009246860359 22 28 112 48 47 113 49 48 113 48 112 111 47 46 111 112 47 114 50 49 114 49 113 110 46 45 110 111 46 115 51 50 115 50 114 109 45 44 109 110 45 116 52 51 116 53 52 116 51 115 108 44 43 108 109 44 117 53 116 107 108 43 118 53 117 118 54 53 106 42 41 106 43 42 106 107 43 119 54 118 119 55 54 105 106 41 120 55 119 120 56 55 120 57 56 104 105 41 104 41 40 121 57 120 103 104 40 103 39 38 103 40 39 122 57 121 122 58 57 122 59 58 102 103 38 102 38 37 123 59 122 101 102 37 124 59 123 124 60 59 100 36 35 100 37 36 100 101 37 125 61 60 125 60 124 99 100 35 126 61 125 126 62 61 126 63 62 98 35 34 98 99 35 127 63 126 97 33 32 97 34 33 97 98 34 128 63 127 128 64 63 96 97 32 95 32 31 95 96 32 94 31 30 94 95 31 93 30 29 93 94 30 92 29 28 92 93 29 91 27 26 91 28 27 91 92 28 90 91 26 89 26 25 89 90 26 88 25 24 88 89 25 87 23 22 87 24 23 87 88 24 86 22 21 86 87 22 85 86 21 84 21 20 84 85 21 83 84 20 83 20 19 82 83 19 82 19 18 17 82 18 81 82 17 16 81 17 16 80 81 79 80 16 15 79 16 78 79 15 14 78 15 13 78 14 13 77 78 76 77 13 12 76 13 11 76 12 11 75 76 10 75 11 10 74 75 9 74 10 9 73 74 8 73 9 8 72 73 7 72 8 7 71 72 6 71 7 6 69 70 6 70 71 5 68 69 5 69 6 4 68 5 3 67 68 3 68 4 2 65 66 2 66 67 2 67 3 1 65 2 
4 2 1 0.5250000375
0 6 0 3.67394039744206e-16 6 6 0 7.5 0 4.59242549680257e-16 7.5 6 34 12 34 18 35.5 12 35.5 18 4 2 1 4 1 3 

TShapes 100
Ve
1.5e-07
-14 -13.5 0
0 0

0101101
*
Ve
1e-07
-14 -13.5 6
0 0

0101101
*
Ed
 1e-07 1 1 0
1  1 0 6 12
2  1 2 0 6 12
2  2 1 0 6 12
6  1 1 4
6  2 2 4
0

0101000
+100 4 -99 4 *
Ve
1e-07
-14 14.5 6
0 0

0101101
*
Ed
 1e-07 1 1 0
1  2 0 0 28
2  3 3 0 0 28
2  4 1 0 0 28
6  3 1 4
6  4 3 4
0

0101000
-97 4 +99 4 *
Ve
1.5e-07
-14 14.5 0
0 0

0101101
*
Ed
 1e-07 1 1 0
1  3 0 6 12
2  5 4 0 6 12
2  6 1 0 6 12
6  5 1 4
6  6 4 4
0

0101000
+95 4 -97 4 *
Ed
 1.5e-07 1 1 0
1  4 0 7.25 35.25
2  7 1 3 7.25 35.25
2  8 5 7 7.25 35.25
6  7 1 0
6  8 5 0
0

0101000
+100 0 -95 0 *
Wi

0101100
-98 3 -96 3 +94 3 +93 0 *
Fa
0  1e-07 1 3
2  1
0111000
+92 0 *
Ve
1.5e-07
0 -13.5 0
0 0

0101101
*
Ed
 1.5e-07 1 1 0
1  5 0 -21 -7
2  9 2 3 -21 -7
2  10 5 7 -21 -7
6  9 2 0
6  10 5 0
0

0101000
+90 0 -100 0 *
Ve
1.5e-07
0 -13.5 6
0 0

0101101
*
Ed
 1.5e-07 1 1 0
1  6 0 -15 -9
2  11 2 3 -15 -9
2  12 6 10 -15 -9
6  11 2 0
6  12 6 0
0

0101000
+88 0 -90 0 *
Ed
 1e-07 1 1 0
1  7 0 0 14
2  13 3 0 0 14
2  14 2 0 0 14
6  13 2 4
6  14 3 4
0

0101000
+99 4 -88 4 *
Wi

0101100
+89 0 +87 0 +86 3 +98 3 *
Fa
0  1e-07 2 3
2  2
0111000
+85 0 *
Ve
1.5e-07
0 14.5 6
0 0

0101101
*
Ed
 1e-07 1 1 0
1  8 0 0 14
2  15 3 0 0 14
2  16 4 0 0 14
6  15 3 4
6  16 4 4
0

0101000
+97 4 -83 4 *
Ve
1.50000000520475e-07
5.20474889637625e-16 8.5 6
0 0

0101101
*
Ed
 1.5e-07 1 1 0
1  9 0 29.25 35.25
2  17 3 3 29.25 35.25
2  18 6 10 29.25 35.25
0

0101000
+81 0 -83 0 *
Ve
1.50000001561425e-07
-1.56142466891288e-15 -8.5 6
0 0

0101101
*
Ed
 1.00000003774758e-07 1 1 0
1  10 0 1.5707963267949 4.71238898038469
2  19 7 0 1.5707963267949 4.71238898038469
2  20 8 0 1.5707963267949 4.71238898038469
2  21 3 14 1.5707963267949 4.71238898038469
0

0101000
+81 15 -79 15 *
Ed
 1.5e-07 1 1 0
1  9 0 7.25 12.25
2  17 3 3 7.25 12.25
2  18 6 10 7.25 12.25
0

0101000
+88 0 -79 0 *
Wi

0101100
-82 3 +80 0 -78 13 +77 0 +86 3 -96 3 *
Fa
0  1e-07 3 3

0101000
+76 0 *
Ve
1.5e-07
0 14.5 0
0 0

0101101
*
Ed
 1.5e-07 1 1 0
1  11 0 -21 -7
2  22 4 3 -21 -7
2  23 5 7 -21 -7
6  17 4 0
6  18 5 0
0

0101000
+74 0 -95 0 *
Ed
 1.5e-07 1 1 0
1  12 0 -15 -9
2  24 4 3 -15 -9
2  25 6 10 -15 -9
6  19 4 0
6  20 7 0
0

0101000
+83 0 -74 0 *
Wi

0101100
+73 0 +72 0 +82 3 +94 3 *
Fa
0  1e-07 4 3
2  4
0111000
+71 0 *
Ve
1.5e-07
0 -8.5 0
0 0

0101101
*
Ed
 1.5e-07 1 1 0
1  13 0 14.5 19.5
2  26 6 10 14.5 19.5
2  27 5 7 14.5 19.5
0

0101000
+90 0 -69 0 *
Ve
1.5e-07
0 8.5 0
0 0

0101101
*
Ed
 1.00000003774758e-07 1 1 0
1  14 0 1.5707963267949 4.71238898038469
2  28 7 13 1.5707963267949 4.71238898038469
2  29 5 7 1.5707963267949 4.71238898038469
0

0101000
+67 0 -69 0 *
Ed
 1.5e-07 1 1 0
1  15 0 36.5 42.5
2  30 6 10 36.5 42.5
2  31 5 7 36.5 42.5
0

0101000
+67 0 -74 0 *
Wi

0101100
+89 0 -68 0 +66 0 -65 0 -73 0 +93 0 *
Fa
0  1e-07 5 7

0101000
+64 0 *
Ed
 1e-07 1 1 0
1  16 0 6 12
2  32 7 13 6 12
2  33 6 10 6 12
0

0101000
+69 0 -79 0 *
Wi

0101100
-77 0 +62 0 +68 0 +87 0 *
Fa
0  1e-07 6 10

0101000
+61 0 *
Ed
 1e-07 1 1 0
1  17 0 6 12
2  34 7 13 6 12
2  35 6 10 6 12
0

0101000
+67 0 -81 0 *
Wi

0101100
-80 0 -72 0 +65 0 -59 0 *
Fa
0  1e-07 6 10

0101000
+58 0 *
Wi

0101100
-78 13 +62 0 +66 0 -59 0 *
Fa
0  1e-07 7 13

0101000
+56 0 *
Sh

0101100
-91 0 -84 0 +75 0 +70 0 +63 0 +60 0 +57 0 -55 0 *
So

0100000
+54 0 *
Co

0100000
+53 0 *
Ve
1.50000000459243e-07
4.59242549680257e-16 7.5 6
0 0

0101101
*
Ve
1.50000001377728e-07
-1.37772764904077e-15 -7.5 6
0 0

0101101
*
Ed
 1.00000003330669e-07 1 1 0
1  18 0 1.5707963267949 4.71238898038469
2  36 9 0 1.5707963267949 4.71238898038469
2  37 10 0 1.5707963267949 4.71238898038469
2  38 8 19 1.5707963267949 4.71238898038469
2  39 3 20 1.5707963267949 4.71238898038469
0

0101000
+51 21 -50 21 *
Ve
1.5e-07
0 -7.5 0
0 0

0101101
*
Ed
 1e-07 1 1 0
1  19 0 6 12
2  40 9 18 6 12
2  41 6 10 6 12
0

0101000
+48 0 -50 0 *
Ve
1.5e-07
0 7.5 0
0 0

0101101
*
Ed
 1.00000003330669e-07 1 1 0
1  20 0 1.5707963267949 4.71238898038469
2  42 9 18 1.5707963267949 4.71238898038469
2  43 5 7 1.5707963267949 4.71238898038469
0

0101000
+46 0 -48 0 *
Ed
 1e-07 1 1 0
1  21 0 6 12
2  44 9 18 6 12
2  45 6 10 6 12
0

0101000
+46 0 -51 0 *
Wi

0101100
-49 18 +47 0 +45 0 -44 0 *
Fa
0  1e-07 9 18

0101000
+43 0 *
Ve
1.50000000367394e-07
3.67394039744206e-16 6 6
0 0

0101101
*
Ed
 1.5e-07 1 1 0
1  22 0 20 21.5
2  46 10 18 20 21.5
2  47 6 10 20 21.5
0

0101000
+41 0 -51 0 *
Ve
1.50000001102182e-07
-1.10218211923262e-15 -6 6
0 0

0101101
*
Ed
 1e-07 1 1 0
1  23 0 1.5707963267949 4.71238898038469
2  48 10 18 1.5707963267949 4.71238898038469
2  49 11 24 1.5707963267949 4.71238898038469
2  50 8 13 1.5707963267949 4.71238898038469
2  51 3 3 1.5707963267949 4.71238898038469
6  21 8 0
6  22 9 0
0

0101000
+41 0 -39 0 *
Ed
 1.5e-07 1 1 0
1  22 0 6.5 8
2  46 10 18 6.5 8
2  47 6 10 6.5 8
0

0101000
+50 0 -39 0 *
Wi

0101100
+40 0 -38 0 +37 0 +49 18 *
Fa
0  1e-07 10 18

0101000
+36 0 *
Ve
1.5e-07
0 -6 0
0 0

0101101
*
Ed
 1e-07 1 1 0
1  24 0 12 18
2  52 11 24 12 18
2  53 6 10 12 18
6  23 8 0
6  24 10 0
0

0101000
+34 0 -39 0 *
Ed
 1.5e-07 1 1 0
1  25 0 20.5 22
2  54 6 10 20.5 22
2  55 5 7 20.5 22
0

0101000
+48 0 -34 0 *
Wi

0101100
-47 0 -37 0 +33 0 +32 0 *
Fa
0  1e-07 6 10

0101000
+31 0 *
Ve
1.5e-07
0 6 0
0 0

0101101
*
Ed
 1e-07 1 1 0
1  26 0 1.5707963267949 4.71238898038469
2  56 11 24 1.5707963267949 4.71238898038469
2  57 5 7 1.5707963267949 4.71238898038469
6  25 8 0
6  26 11 0
0

0101000
+29 0 -34 0 *
Ed
 1.5e-07 1 1 0
1  27 0 34 35.5
2  58 6 10 34 35.5
2  59 5 7 34 35.5
0

0101000
+29 0 -46 0 *
Wi

0101100
-45 0 -32 0 +28 0 -27 0 *
Fa
0  1e-07 5 7

0101000
+26 0 *
Ed
 1e-07 1 1 0
1  28 0 12 18
2  60 11 24 12 18
2  61 6 10 12 18
6  27 8 0
6  28 12 0
0

0101000
+29 0 -41 0 *
Wi

0101100
-24 0 -40 0 +44 0 +27 0 *
Fa
0  1e-07 6 10

0101000
+23 0 *
Wi

0101100
-38 0 +33 0 +28 0 -24 0 *
Fa
0  1e-07 11 24
2  8
0111000
+21 0 *
Sh

0101100
+42 0 +35 0 +30 0 +25 0 +22 0 -20 0 *
So

0100000
+19 0 *
Co

0100000
+18 0 *
Ed
 1.5e-07 1 1 0
1  29 0 21.5 22.5
2  62 8 13 21.5 22.5
2  63 6 10 21.5 22.5
0

0101000
+51 0 -81 0 *
Ed
 1.5e-07 1 1 0
1  29 0 5.5 6.5
2  62 8 13 5.5 6.5
2  63 6 10 5.5 6.5
0

0101000
+79 0 -50 0 *
Wi

0101100
+16 0 -49 18 +15 0 +78 13 *
Fa
0  1e-07 8 13

0101000
+14 0 *
Ed
 1.5e-07 1 1 0
1  30 0 19.5 20.5
2  64 6 10 19.5 20.5
2  65 5 7 19.5 20.5
0

0101000
+69 0 -48 0 *
Wi

0101100
-62 0 -15 0 +47 0 +12 0 *
Fa
0  1e-07 6 10

0101000
+11 0 *
Ed
 1.5e-07 1 1 0
1  31 0 35.5 36.5
2  66 6 10 35.5 36.5
2  67 5 7 35.5 36.5
0

0101000
+46 0 -67 0 *
Wi

0101100
-66 0 -12 0 +45 0 -9 0 *
Fa
0  1e-07 5 7

0101000
+8 0 *
Wi

0101100
-44 0 -16 0 +59 0 +9 0 *
Fa
0  1e-07 6 10

0101000
+6 0 *
Sh

0101100
+55 0 +13 0 +10 0 +7 0 +5 0 -42 0 *
So

0100000
+4 0 *
Co

0100000
+3 0 *
Co

1100000
+52 0 +17 0 +2 0 *

+1 0 